<mxfile host="app.diagrams.net" modified="2022-07-12T20:07:02.070Z" agent="5.0 (Macintosh; Intel Mac OS X 10_15_7) AppleWebKit/537.36 (KHTML, like Gecko) Chrome/103.0.0.0 Safari/537.36" etag="yu-URVuzEr7SONF1TyGq" version="20.0.4" type="github">
  <diagram id="6weOOBW8WvJtmMUR40tX" name="Page-1">
    <mxGraphModel dx="1018" dy="659" grid="1" gridSize="10" guides="1" tooltips="1" connect="1" arrows="1" fold="1" page="1" pageScale="1" pageWidth="850" pageHeight="1100" math="0" shadow="0">
      <root>
        <mxCell id="0" />
        <mxCell id="1" parent="0" />
        <mxCell id="3dvKJvV3KhFOjNPK79Kx-1" value="&lt;font style=&quot;font-size: 25px;&quot;&gt;eWASM&lt;/font&gt;" style="rounded=1;whiteSpace=wrap;html=1;fillColor=#f5f5f5;fontColor=#333333;strokeColor=#666666;" vertex="1" parent="1">
          <mxGeometry x="90" y="280" width="690" height="120" as="geometry" />
        </mxCell>
        <mxCell id="3dvKJvV3KhFOjNPK79Kx-2" value="&lt;font style=&quot;font-size: 20px;&quot;&gt;Solidity&lt;/font&gt;" style="rounded=1;whiteSpace=wrap;html=1;fontSize=25;fillColor=#d5e8d4;strokeColor=#82b366;" vertex="1" parent="1">
          <mxGeometry x="280" y="140" width="120" height="60" as="geometry" />
        </mxCell>
        <mxCell id="3dvKJvV3KhFOjNPK79Kx-3" value="&lt;font style=&quot;font-size: 20px;&quot;&gt;Rust&lt;/font&gt;" style="rounded=1;whiteSpace=wrap;html=1;fontSize=25;fillColor=#fff2cc;strokeColor=#d6b656;" vertex="1" parent="1">
          <mxGeometry x="90" y="140" width="120" height="60" as="geometry" />
        </mxCell>
        <mxCell id="3dvKJvV3KhFOjNPK79Kx-4" value="&lt;font style=&quot;font-size: 20px;&quot;&gt;Go&lt;/font&gt;" style="rounded=1;whiteSpace=wrap;html=1;fontSize=25;fillColor=#dae8fc;strokeColor=#6c8ebf;" vertex="1" parent="1">
          <mxGeometry x="470" y="140" width="120" height="60" as="geometry" />
        </mxCell>
        <mxCell id="3dvKJvV3KhFOjNPK79Kx-5" value="&lt;font style=&quot;font-size: 20px;&quot;&gt;All HLLs&lt;/font&gt;" style="rounded=1;whiteSpace=wrap;html=1;fontSize=25;fillColor=#e1d5e7;strokeColor=#9673a6;" vertex="1" parent="1">
          <mxGeometry x="660" y="140" width="120" height="60" as="geometry" />
        </mxCell>
        <mxCell id="3dvKJvV3KhFOjNPK79Kx-7" value="" style="endArrow=classic;html=1;rounded=0;fontSize=20;exitX=0.5;exitY=1;exitDx=0;exitDy=0;entryX=0.086;entryY=-0.008;entryDx=0;entryDy=0;entryPerimeter=0;strokeWidth=1.5;" edge="1" parent="1" source="3dvKJvV3KhFOjNPK79Kx-3" target="3dvKJvV3KhFOjNPK79Kx-1">
          <mxGeometry width="50" height="50" relative="1" as="geometry">
            <mxPoint x="400" y="280" as="sourcePoint" />
            <mxPoint x="450" y="230" as="targetPoint" />
          </mxGeometry>
        </mxCell>
        <mxCell id="3dvKJvV3KhFOjNPK79Kx-8" value="" style="endArrow=classic;html=1;rounded=0;fontSize=20;exitX=0.5;exitY=1;exitDx=0;exitDy=0;entryX=0.086;entryY=-0.008;entryDx=0;entryDy=0;entryPerimeter=0;strokeWidth=1.5;" edge="1" parent="1">
          <mxGeometry width="50" height="50" relative="1" as="geometry">
            <mxPoint x="340.15999999999997" y="200.96" as="sourcePoint" />
            <mxPoint x="339.4999999999999" y="279.99999999999994" as="targetPoint" />
          </mxGeometry>
        </mxCell>
        <mxCell id="3dvKJvV3KhFOjNPK79Kx-9" value="" style="endArrow=classic;html=1;rounded=0;fontSize=20;exitX=0.5;exitY=1;exitDx=0;exitDy=0;entryX=0.086;entryY=-0.008;entryDx=0;entryDy=0;entryPerimeter=0;strokeWidth=1.5;" edge="1" parent="1">
          <mxGeometry width="50" height="50" relative="1" as="geometry">
            <mxPoint x="530.1600000000001" y="200.96" as="sourcePoint" />
            <mxPoint x="529.5" y="279.99999999999994" as="targetPoint" />
          </mxGeometry>
        </mxCell>
        <mxCell id="3dvKJvV3KhFOjNPK79Kx-10" value="" style="endArrow=classic;html=1;rounded=0;fontSize=20;exitX=0.5;exitY=1;exitDx=0;exitDy=0;entryX=0.086;entryY=-0.008;entryDx=0;entryDy=0;entryPerimeter=0;strokeWidth=1.5;" edge="1" parent="1">
          <mxGeometry width="50" height="50" relative="1" as="geometry">
            <mxPoint x="720.16" y="200" as="sourcePoint" />
            <mxPoint x="719.4999999999999" y="279.03999999999996" as="targetPoint" />
          </mxGeometry>
        </mxCell>
        <mxCell id="3dvKJvV3KhFOjNPK79Kx-11" value="" style="endArrow=classic;html=1;rounded=0;fontSize=20;strokeWidth=1.5;exitX=0.5;exitY=1;exitDx=0;exitDy=0;entryX=0.5;entryY=0;entryDx=0;entryDy=0;" edge="1" parent="1" source="3dvKJvV3KhFOjNPK79Kx-1" target="3dvKJvV3KhFOjNPK79Kx-12">
          <mxGeometry width="50" height="50" relative="1" as="geometry">
            <mxPoint x="400" y="430" as="sourcePoint" />
            <mxPoint x="435" y="460" as="targetPoint" />
          </mxGeometry>
        </mxCell>
        <mxCell id="3dvKJvV3KhFOjNPK79Kx-17" value="" style="edgeStyle=orthogonalEdgeStyle;rounded=0;orthogonalLoop=1;jettySize=auto;html=1;fontSize=25;strokeWidth=1.5;" edge="1" parent="1" source="3dvKJvV3KhFOjNPK79Kx-12" target="3dvKJvV3KhFOjNPK79Kx-16">
          <mxGeometry relative="1" as="geometry" />
        </mxCell>
        <mxCell id="3dvKJvV3KhFOjNPK79Kx-12" value="&lt;font style=&quot;font-size: 25px;&quot;&gt;EVM Bytecode&lt;/font&gt;" style="rounded=1;whiteSpace=wrap;html=1;fontSize=20;fillColor=#f5f5f5;fontColor=#333333;strokeColor=#666666;" vertex="1" parent="1">
          <mxGeometry x="210" y="470" width="450" height="120" as="geometry" />
        </mxCell>
        <mxCell id="3dvKJvV3KhFOjNPK79Kx-16" value="&lt;font style=&quot;font-size: 25px;&quot;&gt;EVM Machine&lt;/font&gt;" style="rounded=1;whiteSpace=wrap;html=1;fillColor=#f5f5f5;fontColor=#333333;strokeColor=#666666;" vertex="1" parent="1">
          <mxGeometry x="90" y="640" width="690" height="120" as="geometry" />
        </mxCell>
      </root>
    </mxGraphModel>
  </diagram>
</mxfile>
